<?xml version="1.0" encoding="UTF-8"?>
<!-- Generated by Pixelmator Pro 3.5.6 -->
<svg width="652" height="652" viewBox="0 0 652 652" xmlns="http://www.w3.org/2000/svg">
    <g id="Group" opacity="0.599428">
        <path id="Path" fill="#003f81" stroke="none" d="M 513.799988 456.299988 L 536 456.299988 L 536 431.299988 C 536 426.600006 536.799988 423.299988 538.5 421.399994 C 540.200012 419.600006 542.299988 418.600006 545 418.600006 C 547.400024 418.600006 549.299988 419.299988 550.700012 420.600006 C 552 422 552.700012 424.299988 552.700012 427.5 L 552.700012 456.200012 L 575 456.200012 L 575 423.100006 C 575 416.299988 573.299988 411.200012 569.799988 407.899994 C 566.299988 404.600006 561.599976 402.899994 555.5 402.899994 C 551.400024 402.899994 547.900024 403.5 544.900024 404.700012 C 541.900024 405.899994 538.900024 407.899994 535.900024 410.700012 L 535.900024 384.200012 L 513.700012 384.200012 L 513.700012 456.299988 Z"/>
        <path id="path1" fill="#003f81" stroke="none" d="M 456.5 453.399994 C 461 456.100006 468.5 457.5 479.100006 457.5 C 486.600006 457.5 492.5 456.700012 496.799988 455 C 501.100006 453.299988 504.299988 451.100006 506.299988 448.200012 C 508.299988 445.399994 509.299988 442.399994 509.299988 439.399994 C 509.299988 436.399994 508.299988 433.700012 506.399994 431.200012 C 504.5 428.700012 501.700012 426.799988 498.100006 425.5 C 494.5 424.200012 489 423.100006 481.700012 422.399994 C 476.799988 421.899994 473.700012 421.299988 472.200012 420.600006 C 470.799988 420 470 419 470 417.700012 C 470 416.600006 470.600006 415.600006 471.700012 414.799988 C 472.899994 414 474.700012 413.600006 477.200012 413.600006 C 479.700012 413.600006 481.799988 414.100006 483.5 415.200012 C 484.799988 416 485.700012 417.200012 486.200012 418.899994 L 507.200012 417 C 505.700012 413.600006 503.899994 410.899994 501.700012 408.899994 C 499.5 406.899994 496.799988 405.399994 493.5 404.5 C 490.200012 403.600006 485.100006 403.100006 478.200012 403.100006 C 471.700012 403.100006 466.5 403.700012 462.600006 404.899994 C 458.700012 406.100006 455.700012 408 453.399994 410.5 C 451.200012 413 450.100006 415.899994 450.100006 419.399994 C 450.100006 422.5 451.100006 425.299988 453.200012 427.799988 C 455.299988 430.299988 457.799988 432 460.799988 433 C 463.799988 434 469.100006 435.200012 476.799988 436.399994 C 482 437.200012 485.100006 437.899994 486.299988 438.399994 C 488 439.200012 488.799988 440.299988 488.799988 441.700012 C 488.799988 443 488.200012 444 486.899994 444.899994 C 485.299988 446 483 446.600006 480 446.600006 C 477.299988 446.600006 475.100006 446.100006 473.5 445.100006 C 471.899994 444.100006 470.600006 442.399994 469.700012 440.100006 L 447.700012 442 C 449.200012 446.899994 452 450.700012 456.5 453.399994"/>
    </g>
    <path id="path2" fill="#003f81" stroke="none" opacity="0.599428" d="M 419.100006 404.200012 L 441.299988 404.200012 L 441.299988 456.299988 L 419.100006 456.299988 Z"/>
    <path id="path3" fill="#003f81" stroke="none" opacity="0.599428" d="M 419.100006 384.399994 L 441.299988 384.399994 L 441.299988 398 L 419.100006 398 Z"/>
    <path id="path4" fill="#003f81" stroke="none" opacity="0.599428" d="M 351.100006 456.299988 L 376.100006 456.299988 L 376.100006 423.200012 L 407.299988 423.200012 L 407.299988 406.899994 L 376.100006 406.899994 L 376.100006 392.700012 L 412.5 392.700012 L 412.5 375.299988 L 351.100006 375.299988 Z"/>
    <g id="g1" opacity="0.599428">
        <path id="path5" fill="#003f81" stroke="none" d="M 319.5 439.799988 C 317.600006 441.799988 315.200012 442.799988 312.399994 442.799988 C 309.700012 442.799988 307.5 441.799988 305.700012 439.799988 C 303.899994 437.799988 303 434.700012 303 430.5 C 303 426 303.899994 422.700012 305.600006 420.799988 C 307.299988 418.899994 309.5 417.899994 312.100006 417.899994 C 315.100006 417.899994 317.5 418.899994 319.399994 420.899994 C 321.299988 422.899994 322.299988 425.899994 322.299988 430 C 322.399994 434.600006 321.399994 437.899994 319.5 439.799988 M 322.200012 384.399994 L 322.200012 409.399994 C 320 407.299988 317.5 405.700012 314.700012 404.700012 C 311.899994 403.600006 308.700012 403.100006 305.299988 403.100006 C 298.200012 403.100006 292.399994 405.399994 287.799988 410 C 283.200012 414.600006 280.899994 421.200012 280.899994 429.799988 C 280.899994 437.5 283 444.100006 287.100006 449.5 C 291.299988 454.899994 297.299988 457.600006 305.200012 457.600006 C 309.100006 457.600006 312.700012 456.799988 315.899994 455.299988 C 318.299988 454.200012 321 451.899994 323.899994 448.700012 L 323.899994 456.399994 L 344.600006 456.399994 L 344.600006 384.399994 L 322.200012 384.399994 Z"/>
    </g>
    <path id="path6" fill="#003f81" stroke="none" opacity="0.599428" d="M 252 384.399994 L 274.299988 384.399994 L 274.299988 456.399994 L 252 456.399994 Z"/>
    <g id="g2" opacity="0.599428">
        <path id="path7" fill="#003f81" stroke="none" d="M 199.899994 456.299988 L 222.199997 456.299988 L 222.199997 438.899994 C 222.199997 430.600006 223.300003 424.899994 225.600006 421.799988 C 227.199997 419.600006 229.5 418.600006 232.399994 418.600006 C 233.899994 418.600006 236 419.100006 238.600006 420.100006 L 245.5 405.799988 C 241.600006 404 238 403 234.699997 403 C 231.600006 403 229 403.700012 226.800003 405.100006 C 224.699997 406.5 222.600006 409 220.600006 412.700012 L 220.600006 404.100006 L 199.899994 404.100006 L 199.899994 456.299988 Z"/>
        <path id="path8" fill="#003f81" stroke="none" d="M 167.800003 440.700012 C 165.800003 442.899994 163.100006 444 159.899994 444 C 156.800003 444 154.100006 442.899994 152 440.700012 C 150 438.5 149 435 149 430.399994 C 149 425.799988 150.100006 422.399994 152.199997 420.200012 C 154.300003 418 157 416.799988 160.199997 416.799988 C 163.199997 416.799988 165.800003 417.899994 167.899994 420.100006 C 170 422.299988 171 425.700012 171 430.200012 C 170.899994 435 169.899994 438.5 167.800003 440.700012 M 186.100006 412.100006 C 180.199997 406.100006 171.399994 403 159.800003 403 C 149.699997 403 141.600006 405.600006 135.699997 410.700012 C 129.699997 415.899994 126.800003 422.399994 126.800003 430.399994 C 126.800003 438.899994 130.300003 445.799988 137.399994 451.100006 C 143.100006 455.399994 150.699997 457.5 160 457.5 C 170.399994 457.5 178.600006 454.899994 184.5 449.799988 C 190.399994 444.700012 193.399994 438.100006 193.399994 430.100006 C 193.199997 423 190.800003 417 186.100006 412.100006"/>
    </g>
    <path id="path9" fill="#003f81" stroke="none" opacity="0.599428" d="M 36.800003 455.899994 L 61.099998 455.899994 L 75.199997 404.899994 L 89.300003 455.899994 L 113.599998 455.899994 L 131.300003 374.899994 L 107.900002 374.899994 L 99.300003 420 L 86.800003 374.899994 L 63.5 374.899994 L 51 420.100006 L 42.5 374.899994 L 18.899994 374.899994 Z"/>
    <g id="g3" opacity="0.599428">
        <path id="path10" fill="#4ba635" stroke="none" d="M 466.200012 359.5 C 466.200012 359.5 521.400024 309.399994 554.799988 300 C 581.799988 292.399994 597.900024 303.200012 601.700012 322.799988 C 607.400024 352.100006 587 379.600006 587 379.600006 C 587 379.600006 607.099976 332.5 581.599976 320.100006 C 563.299988 311.299988 537 321.700012 525.5 326.5 C 513.700012 331.399994 466.200012 359.5 466.200012 359.5"/>
        <path id="path11" fill="#003f81" stroke="none" d="M 495.899994 223.399994 C 495.899994 223.399994 523.299988 260.100006 498.399994 286.799988 C 477 309.799988 424.700012 303.700012 424.700012 303.700012 C 424.700012 303.700012 425.200012 225.700012 512.5 217.700012 C 534.400024 215.700012 583.5 216.700012 604.799988 273.100006 C 624.799988 326 586.799988 378.899994 586.799988 378.899994 C 586.799988 378.899994 602.200012 339.600006 583.299988 326.799988 C 549 303.299988 463 365.5 463 365.5 C 463 365.5 541 324.200012 572 341.200012 C 594.200012 353.299988 577 395.299988 577 395.299988 C 577 395.299988 637.299988 340.799988 613.200012 263.299988 C 604.700012 236 572.5 188.700012 508.100006 202.200012 C 410.600006 222.700012 419.799988 307.5 419.799988 307.5 C 419.799988 307.5 467 321.200012 493 304 C 514.200012 289.899994 517.700012 278 515.400024 261.200012 C 511.600006 233.600006 495.899994 223.399994 495.899994 223.399994"/>
        <path id="path12" fill="#4ba635" stroke="none" d="M 546.299988 285.700012 C 552.299988 282.899994 553 271.700012 547.799988 260.799988 C 542.599976 249.899994 533.599976 243.399994 527.599976 246.200012 C 521.599976 249 520.900024 260.200012 526.099976 271.100006 C 531.299988 282 540.299988 288.5 546.299988 285.700012"/>
        <path id="path13" fill="#4ba635" stroke="none" d="M 423.299988 312.200012 C 423.299988 312.200012 449.600006 320 485.200012 312.799988 C 511.100006 307.600006 542.299988 295.600006 561.200012 278.100006 C 597.400024 244.700012 587.700012 188.5 587.700012 188.5 C 587.700012 188.5 587 181.600006 591.400024 186.5 C 594.799988 190.200012 607.900024 228.5 584.900024 267.799988 C 570 293.299988 535.400024 309.399994 501.299988 316.5 C 458.899994 325.299988 426.399994 317.100006 423.299988 316.100006 C 420.100006 315.100006 418.100006 311.399994 423.299988 312.200012"/>
        <path id="path14" fill="#003f81" stroke="none" d="M 459.899994 273.200012 C 464.5 273.200012 468.299988 269.399994 468.299988 264.799988 C 468.299988 260.200012 464.5 256.399994 459.899994 256.399994 C 455.299988 256.399994 451.5 260.100006 451.5 264.799988 C 451.5 269.399994 455.299988 273.200012 459.899994 273.200012"/>
    </g>
</svg>
